<svg xmlns="http://www.w3.org/2000/svg" width="141" height="34" viewBox="0 0 141 34" fill="none">
    <g clip-path="url(#clip0_2829_17316)">
      <path d="M52.3525 25.2334H52.8965V28.1502H52.3525V25.2334ZM54.0552 29.857C53.7242 29.857 53.4246 29.7849 53.1724 29.6407C52.9201 29.4964 52.7152 29.2961 52.5733 29.0397C52.4314 28.7832 52.3525 28.4868 52.3525 28.1502H52.8965C52.8965 28.3906 52.9438 28.5989 53.0462 28.7832C53.1487 28.9675 53.2827 29.1118 53.464 29.2079C53.6453 29.3121 53.8424 29.3602 54.071 29.3602C54.2996 29.3602 54.5124 29.3121 54.6938 29.2079C54.8751 29.1038 55.017 28.9675 55.1115 28.7832C55.214 28.5989 55.2613 28.3906 55.2613 28.1502H55.7974C55.7974 28.4868 55.7264 28.7832 55.5766 29.0397C55.4347 29.2961 55.2298 29.4964 54.9697 29.6407C54.7095 29.7849 54.4021 29.857 54.0631 29.857M55.2692 25.2334H55.8052V28.1502H55.2692V25.2334Z" fill="#323232"></path>
      <path d="M57.1456 29.7526V26.5233H57.6186L57.6501 27.1163V29.7526H57.1377H57.1456ZM59.3764 28.1019C59.3764 27.7814 59.337 27.541 59.2661 27.3727C59.1951 27.2044 59.0926 27.0922 58.9665 27.0281C58.8404 26.964 58.6985 26.932 58.533 26.932C58.2571 26.932 58.0363 27.0281 57.8787 27.2365C57.721 27.4368 57.6501 27.7173 57.6501 28.0859H57.4057C57.4057 27.7413 57.453 27.4528 57.5476 27.2044C57.6422 26.956 57.7841 26.7717 57.9733 26.6435C58.1546 26.5153 58.3832 26.4512 58.6433 26.4512C59.0296 26.4512 59.337 26.5714 59.5577 26.8118C59.7785 27.0522 59.8888 27.4208 59.8809 27.9096L59.3764 28.1019ZM59.3764 29.7526V28.1019L59.8809 27.9096V29.7606H59.3764V29.7526Z" fill="#323232"></path>
      <path d="M61.0791 29.7528L61.087 25.2334H61.5994L61.5836 29.7528H61.0791Z" fill="#323232"></path>
      <path d="M63.16 25.7702C63.0733 25.7702 63.0024 25.7381 62.9393 25.674C62.8763 25.6099 62.8447 25.5298 62.8447 25.4496C62.8447 25.3695 62.8763 25.2814 62.9393 25.2173C63.0024 25.1531 63.0733 25.1211 63.16 25.1211C63.2468 25.1211 63.3256 25.1531 63.3886 25.2173C63.4517 25.2814 63.4832 25.3535 63.4832 25.4496C63.4832 25.5458 63.4517 25.6099 63.3886 25.674C63.3256 25.7381 63.2546 25.7702 63.16 25.7702ZM62.8999 29.7527L62.9157 26.5234H63.4202L63.4044 29.7527H62.8999Z" fill="#323232"></path>
      <path d="M64.7286 29.7526V26.5233H65.2016L65.2331 27.1163V29.7526H64.7207H64.7286ZM66.9594 28.1019C66.9594 27.7814 66.92 27.541 66.8491 27.3727C66.7781 27.2044 66.6757 27.0922 66.5495 27.0281C66.4234 26.964 66.2815 26.932 66.116 26.932C65.8401 26.932 65.6194 27.0281 65.4617 27.2365C65.304 27.4368 65.2331 27.7173 65.2331 28.0859H64.9808C64.9808 27.7413 65.0281 27.4528 65.1306 27.2044C65.2252 26.956 65.3671 26.7717 65.5563 26.6435C65.7376 26.5153 65.9662 26.4512 66.2263 26.4512C66.6126 26.4512 66.92 26.5714 67.1407 26.8118C67.3615 27.0522 67.4718 27.4208 67.4718 27.9096L66.9594 28.1019ZM66.9594 29.7526V28.1019L67.4718 27.9096V29.7606H66.9594V29.7526ZM69.1982 28.1019C69.1982 27.7814 69.1588 27.541 69.0878 27.3727C69.0169 27.2044 68.9144 27.0922 68.7883 27.0281C68.6621 26.964 68.5203 26.932 68.3547 26.932C68.0788 26.932 67.8581 27.0281 67.7004 27.2365C67.5428 27.4368 67.4718 27.7173 67.4718 28.0859H67.2275C67.2275 27.7413 67.2748 27.4528 67.3694 27.2044C67.4639 26.956 67.6058 26.7717 67.795 26.6435C67.9842 26.5153 68.2049 26.4512 68.4651 26.4512C68.8435 26.4512 69.1509 26.5714 69.3716 26.8118C69.5923 27.0522 69.7027 27.4208 69.7027 27.9096L69.1982 28.1019ZM69.1982 29.7526V28.1019L69.7027 27.9096V29.7606H69.1982V29.7526Z" fill="#323232"></path>
      <path d="M71.1776 25.7702C71.0909 25.7702 71.02 25.7381 70.9569 25.674C70.8938 25.6099 70.8623 25.5298 70.8623 25.4496C70.8623 25.3695 70.8938 25.2814 70.9569 25.2173C71.02 25.1531 71.0988 25.1211 71.1776 25.1211C71.2643 25.1211 71.3432 25.1531 71.4062 25.2173C71.4693 25.2814 71.5008 25.3535 71.5008 25.4496C71.5008 25.5458 71.4693 25.6099 71.4062 25.674C71.3432 25.7381 71.2722 25.7702 71.1776 25.7702ZM70.9175 29.7527L70.9333 26.5234H71.4456L71.4299 29.7527H70.9175Z" fill="#323232"></path>
      <path d="M72.4775 26.5233H74.4956V26.9801H72.4775V26.5233ZM74.0068 29.8328C73.6994 29.8328 73.455 29.7527 73.2895 29.5844C73.1161 29.4241 73.0372 29.1917 73.0372 28.8952V25.5137H73.5496V28.8392C73.5496 28.9994 73.589 29.1276 73.6757 29.2158C73.7624 29.3039 73.8807 29.352 74.0383 29.352C74.0856 29.352 74.1408 29.352 74.1881 29.328C74.2354 29.3119 74.2985 29.2719 74.3852 29.2158L74.5823 29.6325C74.4719 29.7046 74.3694 29.7527 74.2827 29.7847C74.196 29.8087 74.1014 29.8248 74.0068 29.8248" fill="#323232"></path>
      <path d="M76.979 29.8329C76.6716 29.8329 76.3957 29.7608 76.1592 29.6166C75.9227 29.4723 75.7414 29.272 75.5995 29.0236C75.4655 28.7672 75.3945 28.4787 75.3945 28.1422C75.3945 27.8056 75.4655 27.5171 75.5916 27.2607C75.7256 27.0043 75.9148 26.804 76.1513 26.6597C76.3878 26.5155 76.6558 26.4434 76.9553 26.4434C77.2549 26.4434 77.5071 26.5155 77.7279 26.6677C77.9407 26.82 78.1141 27.0203 78.2324 27.2928C78.3506 27.5572 78.4058 27.8777 78.4058 28.2383H77.9013C77.9013 27.9659 77.8619 27.7255 77.7909 27.5332C77.72 27.3408 77.6096 27.1886 77.4756 27.0764C77.3337 26.9722 77.1603 26.9161 76.9553 26.9161C76.7504 26.9161 76.5691 26.9642 76.4114 27.0684C76.2538 27.1726 76.1355 27.3168 76.0567 27.5011C75.97 27.6854 75.9306 27.9018 75.9306 28.1502C75.9306 28.3986 75.9779 28.6069 76.0725 28.7912C76.1671 28.9675 76.2932 29.1118 76.4508 29.2079C76.6085 29.3121 76.7977 29.3602 77.0026 29.3602C77.2234 29.3602 77.4126 29.3041 77.5702 29.1999C77.72 29.0957 77.8382 28.9515 77.9249 28.7832L78.3743 29.0076C78.2875 29.1759 78.1772 29.3201 78.0511 29.4483C77.9171 29.5765 77.7594 29.6727 77.586 29.7368C77.4047 29.8089 77.2076 29.841 76.979 29.841M75.7493 27.7976H78.1062V28.2463H75.7493V27.7976Z" fill="#323232"></path>
      <path d="M80.7071 29.8332C80.4234 29.8332 80.1711 29.7611 79.9583 29.6168C79.7454 29.4726 79.572 29.2723 79.4538 29.0158C79.3355 28.7594 79.2725 28.4629 79.2725 28.1344C79.2725 27.8058 79.3355 27.5013 79.4538 27.2529C79.572 26.9965 79.7454 26.7962 79.9583 26.6599C80.1711 26.5157 80.4234 26.4436 80.7071 26.4436C80.9752 26.4436 81.2116 26.5157 81.4087 26.6599C81.6137 26.8042 81.7634 27.0045 81.8738 27.2529C81.9842 27.5093 82.0393 27.7978 82.0393 28.1344C82.0393 28.4709 81.9842 28.7594 81.8738 29.0158C81.7634 29.2723 81.6058 29.4726 81.4087 29.6168C81.2038 29.7611 80.9752 29.8332 80.7071 29.8332ZM80.8254 29.3604C81.0146 29.3604 81.1801 29.3043 81.322 29.2081C81.4639 29.104 81.5821 28.9597 81.661 28.7754C81.7398 28.5911 81.7871 28.3828 81.7871 28.1424C81.7871 27.902 81.7477 27.6937 81.661 27.5093C81.5743 27.325 81.4639 27.1808 81.322 27.0766C81.1801 26.9725 81.0146 26.9244 80.8175 26.9244C80.6204 26.9244 80.4391 26.9725 80.2893 27.0766C80.1317 27.1808 80.0134 27.325 79.9267 27.5093C79.84 27.6937 79.7927 27.91 79.7927 28.1424C79.7927 28.3748 79.84 28.5911 79.9267 28.7754C80.0134 28.9597 80.1396 29.104 80.2972 29.2081C80.4549 29.3123 80.6362 29.3604 80.8333 29.3604M81.8186 29.753L81.795 29.1521V25.2256H82.3074V29.753H81.8265H81.8186Z" fill="#323232"></path>
      <path d="M86.7696 29.8332C86.4859 29.8332 86.2336 29.7611 86.0208 29.6168C85.8001 29.4726 85.6345 29.2723 85.5163 29.0158C85.398 28.7594 85.335 28.4629 85.335 28.1344C85.335 27.8058 85.398 27.5013 85.5163 27.2529C85.6345 26.9965 85.8079 26.7962 86.0208 26.6599C86.2336 26.5157 86.4859 26.4436 86.7696 26.4436C87.0377 26.4436 87.2741 26.5157 87.4712 26.6599C87.6762 26.8042 87.826 27.0045 87.9363 27.2529C88.0467 27.5093 88.1019 27.7978 88.1019 28.1344C88.1019 28.4709 88.0467 28.7594 87.9363 29.0158C87.826 29.2723 87.6683 29.4726 87.4712 29.6168C87.2663 29.7611 87.0377 29.8332 86.7696 29.8332ZM86.8879 29.3604C87.0771 29.3604 87.2426 29.3043 87.3845 29.2081C87.5264 29.112 87.6446 28.9597 87.7235 28.7754C87.8023 28.5911 87.8496 28.3828 87.8496 28.1424C87.8496 27.902 87.8102 27.6937 87.7235 27.5093C87.6446 27.325 87.5264 27.1808 87.3845 27.0766C87.2426 26.9725 87.0692 26.9244 86.88 26.9244C86.6908 26.9244 86.5016 26.9725 86.3519 27.0766C86.1942 27.1808 86.076 27.325 85.9892 27.5093C85.9025 27.6937 85.8552 27.91 85.8552 28.1424C85.8552 28.3748 85.9025 28.5911 85.9892 28.7754C86.076 28.9597 86.2021 29.104 86.3597 29.2081C86.5174 29.3123 86.6987 29.3604 86.8958 29.3604M87.8811 29.753L87.8575 29.1521V25.2256H88.3699V29.753H87.889H87.8811Z" fill="#323232"></path>
      <path d="M89.9149 25.7702C89.8282 25.7702 89.7573 25.7381 89.6942 25.674C89.6311 25.6099 89.5996 25.5298 89.5996 25.4496C89.5996 25.3695 89.6311 25.2814 89.6942 25.2173C89.7573 25.1531 89.8361 25.1211 89.9149 25.1211C90.0016 25.1211 90.0805 25.1531 90.1435 25.2173C90.2066 25.2814 90.2381 25.3535 90.2381 25.4496C90.2381 25.5458 90.2066 25.6099 90.1435 25.674C90.0805 25.7381 90.0095 25.7702 89.9149 25.7702ZM89.6548 29.7527L89.6706 26.5234H90.1829L90.1672 29.7527H89.6548Z" fill="#323232"></path>
      <path d="M92.7364 29.7288C92.4527 29.7288 92.2004 29.6567 91.9876 29.5204C91.7747 29.3842 91.6013 29.1919 91.4831 28.9435C91.3648 28.6951 91.3018 28.4146 91.3018 28.0941C91.3018 27.7736 91.3648 27.4771 91.4831 27.2287C91.6013 26.9802 91.7747 26.7879 91.9876 26.6517C92.2004 26.5155 92.4527 26.4434 92.7364 26.4434C93.0045 26.4434 93.2331 26.5155 93.438 26.6517C93.6351 26.7879 93.7928 26.9802 93.9031 27.2287C94.0135 27.4771 94.0687 27.7655 94.0687 28.0941C94.0687 28.4226 94.0135 28.7031 93.9031 28.9515C93.7928 29.1999 93.6351 29.3842 93.438 29.5284C93.2409 29.6647 93.0045 29.7368 92.7364 29.7368M92.7522 31.1311C92.5473 31.1311 92.366 31.107 92.1925 31.067C92.027 31.0269 91.8851 30.9788 91.7669 30.9307C91.6486 30.8827 91.5698 30.8346 91.5146 30.8025L91.7038 30.3778C91.759 30.4099 91.8378 30.45 91.9403 30.49C92.0428 30.5381 92.161 30.5702 92.3029 30.6102C92.4448 30.6423 92.5867 30.6583 92.7443 30.6583C92.9493 30.6583 93.1306 30.6182 93.2961 30.5301C93.4617 30.4419 93.5878 30.3137 93.6745 30.1374C93.7691 29.9612 93.8085 29.7288 93.8085 29.4483V26.5235H94.3209V29.4403C94.3209 29.8089 94.25 30.1214 94.1159 30.3698C93.9819 30.6182 93.7927 30.8106 93.5563 30.9307C93.3198 31.059 93.0518 31.1151 92.7522 31.1151M92.8547 29.272C93.0439 29.272 93.2094 29.2239 93.3513 29.1198C93.4932 29.0156 93.6114 28.8714 93.6903 28.6951C93.7691 28.5188 93.8085 28.3104 93.8085 28.07C93.8085 27.8296 93.7691 27.6373 93.6824 27.461C93.6036 27.2847 93.4853 27.1405 93.3434 27.0443C93.2015 26.9402 93.036 26.8921 92.8468 26.8921C92.6576 26.8921 92.4684 26.9402 92.3187 27.0443C92.161 27.1485 92.0428 27.2847 91.956 27.461C91.8693 27.6373 91.8299 27.8457 91.8299 28.07C91.8299 28.2944 91.8772 28.5188 91.9639 28.6951C92.0506 28.8714 92.1768 29.0156 92.3265 29.1198C92.4842 29.2239 92.6576 29.272 92.8547 29.272Z" fill="#323232"></path>
      <path d="M95.8036 25.7702C95.7169 25.7702 95.6459 25.7381 95.5829 25.674C95.5198 25.6099 95.4883 25.5298 95.4883 25.4496C95.4883 25.3695 95.5198 25.2814 95.5829 25.2173C95.6459 25.1531 95.7169 25.1211 95.8036 25.1211C95.8903 25.1211 95.9691 25.1531 96.0322 25.2173C96.0953 25.2814 96.1268 25.3535 96.1268 25.4496C96.1268 25.5458 96.0953 25.6099 96.0322 25.674C95.9691 25.7381 95.8982 25.7702 95.8036 25.7702ZM95.5435 29.7527L95.5592 26.5234H96.0716L96.0558 29.7527H95.5435Z" fill="#323232"></path>
      <path d="M97.1035 26.5233H99.1215V26.9801H97.1035V26.5233ZM98.6328 29.8328C98.3254 29.8328 98.081 29.7527 97.9155 29.5844C97.742 29.4241 97.6632 29.1917 97.6632 28.8952V25.5137H98.1756V28.8392C98.1756 28.9994 98.215 29.1276 98.3017 29.2158C98.3884 29.3039 98.5067 29.352 98.6643 29.352C98.7116 29.352 98.7668 29.352 98.8141 29.328C98.8614 29.3119 98.9245 29.2719 99.0112 29.2158L99.2082 29.6325C99.0979 29.7046 98.9954 29.7527 98.9087 29.7847C98.822 29.8087 98.7274 29.8248 98.6328 29.8248" fill="#323232"></path>
      <path d="M101.227 29.8331C100.848 29.8331 100.556 29.745 100.344 29.5687C100.131 29.3924 100.028 29.152 100.028 28.8395C100.028 28.511 100.139 28.2626 100.352 28.0863C100.564 27.91 100.864 27.8218 101.25 27.8218H102.37V28.2545H101.368C101.069 28.2545 100.856 28.3026 100.738 28.3988C100.612 28.4949 100.549 28.6392 100.549 28.8235C100.549 28.9918 100.612 29.128 100.73 29.2241C100.856 29.3203 101.022 29.3684 101.242 29.3684C101.431 29.3684 101.589 29.3283 101.723 29.2402C101.857 29.152 101.96 29.0398 102.038 28.8876C102.109 28.7353 102.149 28.5671 102.149 28.3828H102.464C102.464 28.8235 102.362 29.1761 102.149 29.4325C101.936 29.6889 101.629 29.8251 101.234 29.8251M102.204 29.745L102.157 28.0382C102.149 27.7818 102.117 27.5734 102.062 27.4051C102.007 27.2369 101.92 27.1167 101.81 27.0285C101.692 26.9404 101.542 26.9003 101.353 26.9003C101.163 26.9003 101.014 26.9404 100.88 27.0125C100.746 27.0846 100.635 27.1968 100.549 27.3571L100.099 27.1728C100.178 27.0205 100.281 26.8923 100.399 26.7801C100.517 26.6679 100.659 26.5878 100.817 26.5237C100.982 26.4676 101.156 26.4355 101.361 26.4355C101.652 26.4355 101.897 26.4916 102.094 26.6118C102.291 26.724 102.433 26.9003 102.527 27.1327C102.622 27.3651 102.669 27.6536 102.669 27.9981V29.753H102.212L102.204 29.745Z" fill="#323232"></path>
      <path d="M103.836 29.7528L103.852 25.2334H104.356L104.348 29.7528H103.836Z" fill="#323232"></path>
      <path d="M109 29.8329C108.684 29.8329 108.408 29.7608 108.164 29.6166C107.92 29.4723 107.731 29.272 107.597 29.0236C107.463 28.7672 107.392 28.4787 107.392 28.1422C107.392 27.8056 107.455 27.5171 107.597 27.2607C107.731 27.0043 107.92 26.804 108.156 26.6597C108.401 26.5155 108.677 26.4434 108.984 26.4434C109.291 26.4434 109.559 26.5155 109.804 26.6597C110.048 26.804 110.229 27.0043 110.356 27.2607L109.89 27.4771C109.804 27.3008 109.686 27.1726 109.52 27.0764C109.362 26.9802 109.173 26.9322 108.968 26.9322C108.763 26.9322 108.574 26.9883 108.416 27.0844C108.259 27.1886 108.133 27.3328 108.038 27.5171C107.943 27.7014 107.904 27.9098 107.904 28.1502C107.904 28.3906 107.951 28.5989 108.038 28.7832C108.125 28.9675 108.259 29.1118 108.416 29.2159C108.582 29.3201 108.763 29.3682 108.976 29.3682C109.189 29.3682 109.37 29.3121 109.536 29.2079C109.701 29.1037 109.82 28.9515 109.906 28.7592L110.371 28.9755C110.245 29.248 110.056 29.4643 109.82 29.6246C109.575 29.7769 109.299 29.857 108.992 29.857" fill="#323232"></path>
      <path d="M112.831 29.8331C112.523 29.8331 112.247 29.761 112.003 29.6168C111.759 29.4725 111.569 29.2722 111.435 29.0158C111.301 28.7594 111.23 28.4709 111.23 28.1343C111.23 27.7978 111.294 27.5093 111.428 27.2529C111.562 26.9965 111.751 26.7961 111.987 26.6519C112.232 26.5077 112.5 26.4355 112.807 26.4355C113.114 26.4355 113.398 26.5077 113.635 26.6519C113.871 26.7961 114.06 26.9965 114.194 27.2529C114.328 27.5093 114.392 27.7978 114.392 28.1343C114.392 28.4709 114.328 28.7594 114.194 29.0158C114.06 29.2722 113.871 29.4725 113.635 29.6168C113.398 29.761 113.122 29.8331 112.815 29.8331M112.815 29.3443C113.02 29.3443 113.201 29.2963 113.359 29.1921C113.517 29.0879 113.635 28.9437 113.729 28.7674C113.816 28.5911 113.863 28.3828 113.863 28.1424C113.863 27.902 113.816 27.6936 113.729 27.5173C113.643 27.333 113.517 27.1968 113.351 27.0926C113.193 26.9885 113.012 26.9404 112.799 26.9404C112.586 26.9404 112.405 26.9885 112.247 27.0926C112.09 27.1968 111.964 27.341 111.877 27.5173C111.79 27.6936 111.743 27.902 111.743 28.1424C111.743 28.3828 111.79 28.5911 111.877 28.7674C111.971 28.9517 112.098 29.0879 112.255 29.1921C112.413 29.2963 112.602 29.3443 112.807 29.3443" fill="#323232"></path>
      <path d="M115.503 29.7526V26.5233H115.976L116.007 27.1163V29.7526H115.495H115.503ZM117.734 28.1019C117.734 27.7814 117.694 27.541 117.623 27.3727C117.553 27.2044 117.45 27.0922 117.324 27.0281C117.198 26.964 117.056 26.932 116.89 26.932C116.614 26.932 116.394 27.0281 116.236 27.2365C116.078 27.4368 116.007 27.7173 116.007 28.0859H115.755C115.755 27.7413 115.803 27.4528 115.905 27.2044C116 26.956 116.142 26.7717 116.331 26.6435C116.512 26.5153 116.741 26.4512 117.001 26.4512C117.387 26.4512 117.694 26.5714 117.915 26.8118C118.136 27.0522 118.246 27.4208 118.246 27.9096L117.734 28.1019ZM117.734 29.7526V28.1019L118.246 27.9096V29.7606H117.734V29.7526ZM119.973 28.1019C119.973 27.7814 119.933 27.541 119.862 27.3727C119.791 27.2044 119.689 27.0922 119.563 27.0281C119.437 26.964 119.295 26.932 119.129 26.932C118.853 26.932 118.633 27.0281 118.475 27.2365C118.317 27.4368 118.246 27.7173 118.246 28.0859H118.002C118.002 27.7413 118.049 27.4528 118.152 27.2044C118.246 26.956 118.388 26.7717 118.577 26.6435C118.767 26.5153 118.987 26.4512 119.247 26.4512C119.626 26.4512 119.933 26.5714 120.154 26.8118C120.375 27.0522 120.485 27.4208 120.485 27.9096L119.98 28.1019H119.973ZM119.973 29.7526V28.1019L120.477 27.9096V29.7606H119.973V29.7526Z" fill="#323232"></path>
      <path d="M121.667 29.7526V26.5233H122.14L122.172 27.1163V29.7526H121.659H121.667ZM123.898 28.1019C123.898 27.7814 123.859 27.541 123.788 27.3727C123.717 27.2044 123.614 27.0922 123.488 27.0281C123.362 26.964 123.22 26.932 123.054 26.932C122.779 26.932 122.558 27.0281 122.4 27.2365C122.243 27.4368 122.172 27.7173 122.172 28.0859H121.919C121.919 27.7413 121.967 27.4528 122.069 27.2044C122.164 26.956 122.306 26.7717 122.495 26.6435C122.676 26.5153 122.905 26.4512 123.165 26.4512C123.551 26.4512 123.859 26.5714 124.079 26.8118C124.3 27.0522 124.41 27.4208 124.402 27.9096L123.89 28.1019H123.898ZM123.898 29.7526V28.1019L124.41 27.9096V29.7606H123.898V29.7526ZM126.137 28.1019C126.137 27.7814 126.097 27.541 126.026 27.3727C125.955 27.2044 125.853 27.0922 125.727 27.0281C125.601 26.964 125.459 26.932 125.293 26.932C125.017 26.932 124.797 27.0281 124.639 27.2365C124.481 27.4368 124.41 27.7173 124.41 28.0859H124.166C124.166 27.7413 124.213 27.4528 124.308 27.2044C124.402 26.956 124.544 26.7717 124.734 26.6435C124.923 26.5153 125.143 26.4512 125.411 26.4512C125.79 26.4512 126.097 26.5714 126.318 26.8118C126.539 27.0522 126.649 27.4208 126.649 27.9096L126.145 28.1019H126.137ZM126.137 29.7526V28.1019L126.641 27.9096V29.7606H126.137V29.7526Z" fill="#323232"></path>
      <path d="M129.235 29.8329C128.927 29.8329 128.652 29.7608 128.415 29.6166C128.179 29.4723 127.997 29.272 127.855 29.0236C127.721 28.7672 127.65 28.4787 127.65 28.1422C127.65 27.8056 127.713 27.5171 127.855 27.2607C127.989 27.0043 128.171 26.804 128.415 26.6597C128.652 26.5155 128.92 26.4434 129.219 26.4434C129.519 26.4434 129.771 26.5155 129.992 26.6677C130.212 26.82 130.378 27.0203 130.496 27.2928C130.614 27.5572 130.677 27.8777 130.677 28.2383H130.165C130.165 27.9659 130.126 27.7255 130.055 27.5332C129.984 27.3408 129.873 27.1886 129.739 27.0764C129.597 26.9722 129.424 26.9161 129.219 26.9161C129.014 26.9161 128.833 26.9642 128.675 27.0684C128.518 27.1726 128.399 27.3168 128.313 27.5011C128.226 27.6854 128.186 27.9018 128.186 28.1502C128.186 28.3986 128.234 28.6069 128.328 28.7912C128.423 28.9675 128.549 29.1118 128.707 29.2079C128.864 29.3121 129.054 29.3602 129.259 29.3602C129.487 29.3602 129.668 29.3041 129.826 29.1999C129.976 29.0957 130.094 28.9515 130.181 28.7832L130.63 29.0076C130.543 29.1759 130.433 29.3201 130.299 29.4483C130.165 29.5765 130.007 29.6727 129.834 29.7368C129.661 29.8089 129.456 29.841 129.227 29.841M127.997 27.7976H130.354V28.2463H127.997V27.7976Z" fill="#323232"></path>
      <path d="M131.71 26.5236H132.222V29.753H131.71V26.5236ZM131.994 28.0061C131.994 27.6535 132.057 27.373 132.191 27.1567C132.325 26.9403 132.49 26.7801 132.695 26.6759C132.9 26.5717 133.121 26.5156 133.35 26.5156V26.9964C133.16 26.9964 132.987 27.0285 132.814 27.0926C132.64 27.1567 132.498 27.2609 132.388 27.3971C132.278 27.5413 132.222 27.7336 132.222 27.982L131.994 28.0061Z" fill="#323232"></path>
      <path d="M135.659 29.8329C135.344 29.8329 135.068 29.7608 134.823 29.6166C134.579 29.4723 134.39 29.272 134.256 29.0236C134.122 28.7672 134.051 28.4787 134.051 28.1422C134.051 27.8056 134.114 27.5171 134.248 27.2607C134.382 27.0043 134.571 26.804 134.808 26.6597C135.052 26.5155 135.328 26.4434 135.635 26.4434C135.943 26.4434 136.211 26.5155 136.455 26.6597C136.699 26.804 136.881 27.0043 137.007 27.2607L136.542 27.4771C136.455 27.3008 136.337 27.1726 136.171 27.0764C136.014 26.9802 135.824 26.9322 135.619 26.9322C135.415 26.9322 135.225 26.9883 135.068 27.0844C134.91 27.1886 134.784 27.3328 134.689 27.5171C134.603 27.7014 134.555 27.9098 134.555 28.1502C134.555 28.3906 134.603 28.5989 134.689 28.7832C134.784 28.9675 134.91 29.1118 135.068 29.2159C135.233 29.3201 135.415 29.3682 135.627 29.3682C135.84 29.3682 136.022 29.3121 136.187 29.2079C136.353 29.1037 136.471 28.9515 136.558 28.7592L137.023 28.9755C136.897 29.248 136.707 29.4643 136.471 29.6246C136.226 29.7769 135.951 29.857 135.643 29.857" fill="#323232"></path>
      <path d="M139.474 29.8329C139.167 29.8329 138.891 29.7608 138.654 29.6166C138.418 29.4723 138.236 29.272 138.095 29.0236C137.961 28.7672 137.89 28.4787 137.89 28.1422C137.89 27.8056 137.953 27.5171 138.087 27.2607C138.221 27.0043 138.41 26.804 138.646 26.6597C138.883 26.5155 139.151 26.4434 139.45 26.4434C139.75 26.4434 140.002 26.5155 140.223 26.6677C140.436 26.82 140.609 27.0203 140.727 27.2928C140.846 27.5572 140.909 27.8777 140.909 28.2383H140.396C140.396 27.9659 140.357 27.7255 140.286 27.5332C140.215 27.3408 140.105 27.1886 139.971 27.0764C139.829 26.9722 139.655 26.9161 139.45 26.9161C139.246 26.9161 139.064 26.9642 138.907 27.0684C138.749 27.1726 138.631 27.3168 138.544 27.5011C138.457 27.6854 138.418 27.9018 138.418 28.1502C138.418 28.3986 138.465 28.6069 138.56 28.7912C138.654 28.9675 138.78 29.1118 138.938 29.2079C139.096 29.3121 139.285 29.3602 139.49 29.3602C139.711 29.3602 139.9 29.3041 140.057 29.1999C140.207 29.0957 140.325 28.9515 140.412 28.7832L140.861 29.0076C140.775 29.1759 140.664 29.3201 140.538 29.4483C140.404 29.5765 140.247 29.6727 140.073 29.7368C139.892 29.8089 139.695 29.841 139.466 29.841M138.229 27.7976H140.586V28.2463H138.229V27.7976Z" fill="#323232"></path>
      <path d="M61.3074 19.48C57.8152 19.48 54.2995 18.9271 52.4943 18.4703L53.2116 15.6737C55.2139 16.1064 58.5957 16.5872 62.0641 16.5872C64.7207 16.5872 65.5089 16.451 65.5089 15.8099C65.5089 15.1208 64.8783 15.0326 63.1441 14.9205L57.5315 14.5999C53.6531 14.3916 52.2578 13.3178 52.2578 10.7776C52.2578 7.79673 55.277 7.13965 60.8186 7.13965C63.4752 7.13965 66.9673 7.5964 68.7488 7.89289L68.1182 10.7135C65.7533 10.2808 62.6869 9.96029 59.8254 9.96029C56.9639 9.96029 56.2229 10.0965 56.2229 10.7376C56.2229 11.3786 56.8062 11.4748 57.9808 11.5389L63.5934 11.8835C67.4481 12.1158 69.474 13.0534 69.474 15.85C69.474 18.6466 66.9279 19.488 61.2916 19.488" fill="#323232"></path>
      <path d="M79.9513 7.13184C86.7306 7.13184 90.0256 9.03096 90.0256 13.294C90.0256 17.557 86.7384 19.4561 79.9513 19.4561C73.1641 19.4561 69.877 17.557 69.877 13.294C69.877 9.03096 73.1483 7.13184 79.9513 7.13184ZM79.9513 15.8101C84.547 15.8101 85.7688 15.097 85.7688 13.294C85.7688 11.491 84.5549 10.7778 79.9513 10.7778C75.3477 10.7778 74.1337 11.491 74.1337 13.294C74.1337 15.097 75.3477 15.8101 79.9513 15.8101Z" fill="#323232"></path>
      <path d="M100.415 7.17969C103.3 7.17969 106.162 7.57233 108.259 8.07717L107.399 11.5389C105.736 11.1943 103.363 10.8257 99.7846 10.8257C96.2058 10.8257 94.913 11.3786 94.913 13.3018C94.913 15.2249 96.1979 15.7779 99.7846 15.7779C103.371 15.7779 105.736 15.4092 107.399 15.0647L108.259 18.5264C106.162 19.0312 103.371 19.4239 100.415 19.4239C93.565 19.4239 90.6562 17.5408 90.6562 13.3098C90.6562 9.07882 93.565 7.19571 100.415 7.19571" fill="#323232"></path>
      <path d="M113.595 5.9858H109.338V2.41992H113.595V5.99381V5.9858ZM109.338 7.47625H113.595V19.1595H109.338V7.47625Z" fill="#323232"></path>
      <path d="M133.176 8.02923H133.2V19.1596H129.455L129.14 17.605C126.885 18.5906 124.229 19.3919 121.478 19.3919C117.402 19.3919 114.675 17.7893 114.675 13.4381C114.675 8.74241 118.214 7.25195 123.37 7.25195C127.335 7.25195 130.646 7.66063 133.2 8.00519L133.176 8.02923ZM122.313 15.8181C124.276 15.8181 126.531 15.3853 128.935 14.6722V11.0262C127.043 10.8419 124.836 10.7297 122.944 10.7297C120.287 10.7297 118.932 11.4429 118.932 13.2699C118.932 15.0969 119.854 15.81 122.313 15.81" fill="#323232"></path>
      <path d="M138.836 1.97949H134.579V19.1598H138.836V1.97949Z" fill="#323232"></path>
      <path d="M7.44434 29.5043V31.6599C7.44434 33.6231 9.68307 34.7049 11.1808 33.4709L19.8599 26.3151L28.5468 33.4709C30.0446 34.7049 32.2912 33.6231 32.2912 31.6599V29.5043L19.8678 19.2715L7.44434 29.5043Z" fill="#323232"></path>
      <path d="M37.6749 13.6144L22.1535 0.825309C20.8213 -0.272499 18.9137 -0.272499 17.5815 0.825309L2.06008 13.6144C1.33486 14.2154 0.90918 15.1128 0.90918 16.0664V27.4211C0.90918 30.4181 4.33035 32.0768 6.61639 30.1857L7.44409 29.5045V24.2158C7.44409 23.5908 7.71999 22.9978 8.20085 22.6052L18.3698 14.2234C19.2448 13.5022 20.4903 13.5022 21.3653 14.2234L31.5342 22.6052C32.015 22.9978 32.2909 23.5908 32.2909 24.2158V29.5045L33.1186 30.1857C35.4047 32.0688 38.8258 30.4181 38.8258 27.4211V16.0664C38.8258 15.1128 38.4002 14.2154 37.6749 13.6144Z" fill="#323232"></path>
      <path d="M7.44434 29.5043V31.6599C7.44434 33.6231 9.68307 34.7049 11.1808 33.4709L19.8599 26.3151L28.5468 33.4709C30.0446 34.7049 32.2912 33.6231 32.2912 31.6599V29.5043L19.8678 19.2715L7.44434 29.5043Z" fill="#323232"></path>
      <path d="M37.6749 13.6144L22.1535 0.825309C20.8213 -0.272499 18.9137 -0.272499 17.5815 0.825309L2.06008 13.6144C1.33486 14.2154 0.90918 15.1128 0.90918 16.0664V27.4211C0.90918 30.4181 4.33035 32.0768 6.61639 30.1857L7.44409 29.5045V24.2158C7.44409 23.5908 7.71999 22.9978 8.20085 22.6052L18.3698 14.2234C19.2448 13.5022 20.4903 13.5022 21.3653 14.2234L31.5342 22.6052C32.015 22.9978 32.2909 23.5908 32.2909 24.2158V29.5045L33.1186 30.1857C35.4047 32.0688 38.8258 30.4181 38.8258 27.4211V16.0664C38.8258 15.1128 38.4002 14.2154 37.6749 13.6144Z" fill="#323232"></path>
    </g>
    <defs>
      <clipPath id="clip0_2829_17316">
        <rect width="140" height="34" fill="white" transform="translate(0.90918)"></rect>
      </clipPath>
    </defs>
  </svg>