<svg width="72" height="21" viewBox="0 0 72 21" fill="none" xmlns="http://www.w3.org/2000/svg">
<path d="M67.7358 10.6821C67.674 10.3742 67.5037 10.1588 67.1832 10.0762C67.0381 10.0398 66.889 10.0211 66.7393 10.0205C66.0025 10.0205 65.2657 10.0205 64.5289 10.0205C64.4193 10.0209 64.3108 10.0419 64.2094 10.0825C63.9266 10.1956 63.7857 10.4281 63.8041 10.7503C63.8198 11.0062 63.9717 11.1677 64.272 11.2494C64.4592 11.2931 64.6515 11.3125 64.8439 11.3069H66.0909C66.1259 11.3069 66.1535 11.3015 66.1535 11.3544C66.1535 11.7808 66.1535 12.2081 66.1535 12.6354C66.1548 12.6481 66.1518 12.6608 66.145 12.6717C66.1382 12.6825 66.1279 12.6909 66.1158 12.6955C65.3449 13.0959 64.5354 13.3347 63.6503 13.2656C63.2679 13.2436 62.8956 13.1371 62.5617 12.9541C62.0202 12.6471 61.6831 12.1812 61.4851 11.6121C61.3456 11.1888 61.2748 10.7469 61.2751 10.3024C61.2536 9.77244 61.338 9.24346 61.5238 8.74496C61.7835 8.08608 62.2274 7.59865 62.9163 7.34911C63.392 7.18338 63.9044 7.14403 64.4009 7.2351C64.8565 7.30322 65.2671 7.54145 65.5457 7.89937C65.7041 8.09775 65.8478 8.30511 65.9877 8.51426C66.078 8.64528 66.206 8.74744 66.3555 8.80795C66.5051 8.86846 66.6697 8.88465 66.8286 8.85447C66.9912 8.82622 67.1412 8.75035 67.2585 8.63698C67.3758 8.52361 67.4549 8.3781 67.4853 8.21983C67.5107 8.05779 67.4929 7.89211 67.4337 7.73869C67.2565 7.2471 66.9183 6.82598 66.4713 6.54032C65.8496 6.11573 65.146 5.92453 64.3972 5.87964C63.9046 5.84777 63.4098 5.87399 62.9237 5.95774C62.3029 6.05718 61.7115 6.28656 61.1904 6.63008C61.0882 6.69831 60.9905 6.77461 60.8856 6.85719C60.8888 6.70951 60.8375 6.56562 60.7409 6.45176C60.6444 6.33789 60.5091 6.26164 60.3597 6.23691C60.2614 6.21597 60.161 6.20573 60.0604 6.20639H55.9574C55.8188 6.205 55.6803 6.21672 55.5439 6.2414C55.3841 6.26229 55.2351 6.33159 55.1179 6.43951C55.0008 6.54743 54.9214 6.68852 54.8909 6.84283C54.8584 6.99027 54.8432 7.14086 54.8458 7.29166L54.8513 13.7036C54.8511 13.8167 54.8581 13.9298 54.8725 14.042C54.9296 14.4612 55.1958 14.7413 55.6093 14.7961C55.8108 14.8317 56.0188 14.7925 56.1921 14.6861C56.3655 14.5798 56.4917 14.4141 56.5459 14.2216C56.5897 14.0706 56.6108 13.9143 56.6086 13.7575C56.6086 12.8508 56.6067 11.9445 56.603 11.0385C56.603 10.9873 56.6168 10.9738 56.6693 10.9738C57.6057 10.9738 58.542 10.9738 59.4783 10.9738C59.5244 10.9738 59.5382 10.9855 59.5437 11.0286C59.5868 11.3588 59.6662 11.6835 59.7804 11.9972C60.1488 12.9846 60.7999 13.7332 61.7881 14.183C62.3625 14.4377 62.9828 14.5792 63.6135 14.5995C64.4542 14.6476 65.2959 14.5209 66.0826 14.2278C66.5072 14.0763 66.9138 13.8806 67.2955 13.6444C67.4452 13.5534 67.5673 13.4254 67.6495 13.2734C67.7317 13.1213 67.771 12.9507 67.7634 12.779C67.7634 12.1926 67.7634 11.6064 67.7634 11.0205C67.7657 10.9071 67.7565 10.7937 67.7358 10.6821ZM59.8393 8.32665C59.6753 8.74113 59.5715 9.17591 59.5308 9.61838C59.5308 9.66775 59.5142 9.6884 59.4562 9.6875C58.5352 9.6875 57.6121 9.6875 56.6868 9.6875C56.6288 9.6875 56.6076 9.67852 56.6076 9.61479C56.6076 8.94334 56.6076 8.27219 56.6076 7.60135C56.6076 7.54749 56.6159 7.52864 56.6786 7.52864C57.78 7.52864 58.8818 7.52864 59.9839 7.52864H60.2703C60.0953 7.7774 59.9507 8.04522 59.8393 8.32665ZM2.9904 7.42271C2.16544 7.41242 1.34815 7.57818 0.59587 7.90835L0.994651 9.27009C1.57035 9.06915 2.17817 8.96976 2.78963 8.97656C3.6885 8.97656 4.18582 9.36793 4.18582 10.1435V10.2405C3.67877 10.0416 3.13629 9.94275 2.58978 9.94961C1.09596 9.94961 0 10.5322 0 11.9882C0 13.1551 0.996493 13.8329 2.19192 13.8329C3.09079 13.8329 3.6885 13.542 4.08636 13.0564V13.7341H5.87949V10.1435C5.87949 9.27009 5.68056 8.58787 5.18232 8.10224C4.68407 7.71355 3.98689 7.42271 2.9904 7.42271ZM4.18767 11.5995C4.18767 12.1821 3.58995 12.6677 2.69108 12.7665C2.09337 12.7665 1.69551 12.4756 1.69551 11.99C1.69551 11.4074 2.19376 11.1166 2.99224 11.1166C3.39953 11.1168 3.80401 11.1823 4.18951 11.3105L4.18767 11.5995ZM11.7618 8.29793C11.2617 7.71984 10.664 7.32666 9.67022 7.32666C8.1764 7.32666 6.78113 8.39487 6.78113 10.2396C6.78113 12.0842 8.1718 13.1551 9.67022 13.1551C10.6686 13.1551 11.2663 12.7665 11.7645 12.1812V12.4774C11.7645 13.6426 11.1668 14.2251 9.97138 14.2251C9.07251 14.2251 8.4748 14.0313 7.77762 13.6426L7.1753 14.9998C7.97195 15.3876 8.96844 15.6793 9.96677 15.6793C11.2617 15.6793 12.1587 15.3876 12.7564 14.805C13.2537 14.3194 13.553 13.5429 13.553 12.3814V7.52146H11.7599L11.7618 8.29793ZM10.2679 11.7934C9.36906 11.7934 8.67097 11.2108 8.67097 10.3365C8.67097 9.46219 9.36906 8.88051 10.2679 8.88051C11.1668 8.88051 11.8612 9.46309 11.8612 10.3365C11.8612 11.2099 11.1622 11.7934 10.2661 11.7934H10.2679ZM16.8428 6.83924H15.4466L16.9404 4.99456H18.6359L20.1306 6.83924H18.7363L17.7398 6.06277L16.8428 6.83924ZM17.8393 7.32487C15.9439 7.32487 14.649 8.78356 14.649 10.6282C14.649 12.5699 16.0443 13.9316 18.0382 13.9316C18.5313 13.9336 19.0188 13.8301 19.4665 13.6285C19.9141 13.4269 20.3109 13.132 20.6289 12.7647L19.6324 11.8903C19.1341 12.376 18.6359 12.5699 18.0382 12.5699C17.2397 12.5699 16.642 12.0842 16.4421 11.3078H20.9273V10.8221C20.9273 8.97656 19.9317 7.42182 17.8393 7.32487ZM16.3427 10.1435C16.5416 9.27009 16.9404 8.78446 17.7398 8.78446C18.5392 8.78446 19.0347 9.36704 19.1341 10.1435H16.3427ZM27.8042 9.75393V13.8347H26.0111V10.3383C26.0111 9.46219 25.6123 9.0735 24.9151 9.0735C24.2179 9.0735 23.8173 9.46219 23.8173 10.3383V13.8338H21.9247V7.52056H23.7169V8.39398C24.1157 7.90835 24.7134 7.42271 25.6123 7.42271C27.0066 7.42271 27.8042 8.29703 27.8042 9.75303V9.75393ZM30.5938 10.6291C30.5938 11.6004 31.1915 12.3769 32.1899 12.3769C32.7876 12.3769 33.1854 12.0851 33.6837 11.6973L34.7796 12.7656C34.1819 13.4469 33.4848 13.9325 32.1899 13.9325C30.195 13.9325 28.8007 12.4738 28.8007 10.6291C28.8007 8.78446 30.195 7.32577 32.1899 7.32577C33.3871 7.32577 34.1819 7.71445 34.7796 8.39577L33.6837 9.56272C33.2858 9.17494 32.887 8.8832 32.1899 8.8832C31.291 8.88051 30.5938 9.65698 30.5938 10.6282V10.6291ZM35.7752 7.52056H37.5757V13.7341H35.7798L35.7752 7.52056ZM35.6785 5.28629H37.5757V6.84014H35.6785V5.28629ZM41.558 7.42271C40.4593 7.42271 39.7621 7.61661 39.0649 7.90835L39.5632 9.27009C40.1383 9.06951 40.7455 8.97012 41.3563 8.97656C42.2552 8.97656 42.7534 9.36793 42.7534 10.1435V10.2405C42.246 10.0418 41.7033 9.94292 41.1565 9.94961C39.6626 9.94961 38.5667 10.6291 38.5667 11.9882C38.5667 13.1551 39.5632 13.8329 40.7586 13.8329C41.558 13.8329 42.2552 13.542 42.653 13.0564V13.7341H44.4462V10.1435C44.4462 9.27009 44.2472 8.58787 43.749 8.10224C43.2508 7.71355 42.5536 7.42271 41.558 7.42271ZM42.7553 11.5995C42.7553 12.1821 42.1576 12.6677 41.2587 12.7665C40.661 12.7665 40.2622 12.4756 40.2622 11.99C40.2622 11.4074 40.7604 11.1166 41.5599 11.1166C41.9671 11.117 42.3716 11.1825 42.7571 11.3105L42.7553 11.5995ZM61.3074 3.8989e-08C59.2096 -0.000177499 57.159 0.605972 55.4147 1.74179C53.6704 2.87761 52.3109 4.49208 51.508 6.38103C50.7052 8.26998 50.4951 10.3486 50.9043 12.3539C51.3135 14.3593 52.3236 16.2013 53.8069 17.647C55.2902 19.0928 57.1801 20.0774 59.2376 20.4762C61.295 20.8751 63.4276 20.6703 65.3656 19.8877C67.3036 19.1052 68.96 17.7801 70.1253 16.08C71.2907 14.3799 71.9126 12.3811 71.9124 10.3365C71.9121 7.59517 70.7947 4.96617 68.806 3.02775C66.8172 1.08934 64.1199 0.000238075 61.3074 3.8989e-08ZM61.3074 18.9477C59.56 18.9477 57.8518 18.4427 56.399 17.4965C54.9461 16.5503 53.8137 15.2054 53.145 13.6319C52.4763 12.0584 52.3013 10.327 52.6422 8.65654C52.9831 6.98613 53.8246 5.45176 55.0601 4.24746C56.2957 3.04316 57.87 2.22302 59.5838 1.89076C61.2976 1.55849 63.074 1.72902 64.6883 2.38078C66.3027 3.03255 67.6825 4.13627 68.6533 5.55237C69.6241 6.96848 70.1423 8.63337 70.1423 10.3365C70.1423 12.6203 69.2114 14.8106 67.5546 16.4255C65.8977 18.0405 63.6505 18.9477 61.3074 18.9477Z" fill="black"/>
</svg>
